<?xml version="1.0" encoding="UTF-8"?>
<svg width="512" height="512" viewBox="0 0 512 512" xmlns="http://www.w3.org/2000/svg">
  <defs>
    <linearGradient id="temp-gradient" x1="0%" y1="100%" x2="0%" y2="0%">
      <stop offset="0%" stop-color="#3498db" />
      <stop offset="50%" stop-color="#f1c40f" />
      <stop offset="100%" stop-color="#e74c3c" />
    </linearGradient>
  </defs>
  <circle cx="256" cy="256" r="240" fill="white" stroke="#e0e0e0" stroke-width="8" />
  <g transform="translate(256, 256) scale(0.7) translate(-256, -256)">
    <path d="M256 112c-8.8 0-16 7.2-16 16v144.8c-19.1 11.1-32 31.7-32 55.2 0 35.3 28.7 64 64 64s64-28.7 64-64c0-23.5-12.9-44.1-32-55.2V128c0-8.8-7.2-16-16-16z" fill="white" stroke="#333" stroke-width="16" stroke-linejoin="round" />
    <path d="M256 392c-35.3 0-64-28.7-64-64 0-23.5 12.9-44.1 32-55.2V128c0-8.8 7.2-16 16-16s16 7.2 16 16v144.8c19.1 11.1 32 31.7 32 55.2 0 35.3-28.7 64-64 64z" fill="none" />
    <rect x="240" y="200" width="32" height="140" rx="16" fill="url(#temp-gradient)" />
    <circle cx="256" cy="328" r="32" fill="#e74c3c" />
    <path d="M232 152h48M232 184h48M232 216h48" stroke="#333" stroke-width="8" stroke-linecap="round" />
  </g>
</svg>
